<svg xmlns="http://www.w3.org/2000/svg" width="96" height="96" viewBox="0 0 96 96">
  <rect width="96" height="96" rx="24" fill="#e8faf0"/>
  <path d="M48 18c-16.6 0-30 12.9-30 28.8 0 5.5 1.6 10.6 4.4 15L18 78l16.8-4.2c4 1.9 8.5 3 13.2 3 16.6 0 30-12.9 30-28.8S64.6 18 48 18z" fill="#25d366"/>
  <path d="M63.5 55.8c-.7 2-4 3.7-5.6 3.9-1.5.2-3.4.3-5.5-.3-1.3-.4-3-.9-5.1-1.8-8.9-3.8-14.7-12.5-15.2-13.1-.4-.6-3.6-4.8-3.6-9.1s2.3-6.5 3.1-7.4c.8-.9 1.8-1.1 2.4-1.1h1.7c.5 0 1.3-.2 2 1.5.7 1.7 2.5 6 2.7 6.4.2.4.3 1-.1 1.6-.4.7-.6 1-1.2 1.7-.6.7-1.2 1.5-1.7 2-.6.6-1.2 1.2-.5 2.4.7 1.2 3 5 6.4 8.1 4.4 3.9 8.1 5.1 9.3 5.7 1.2.6 1.9.5 2.6-.3.8-.9 3-3.4 3.8-4.6.8-1.2 1.6-1 2.7-.6 1.1.4 7.1 3.3 8.3 3.9 1.2.6 2 .9 2.3 1.4.3.5.3 2.8-.4 4.8z" fill="#fff"/>
</svg>
